<svg width="25" height="25" viewBox="0 0 25 25" fill="none" xmlns="http://www.w3.org/2000/svg">
<path d="M12.1446 0C5.45082 0 0 5.45082 0 12.1446C0 18.8383 5.45082 24.2891 12.1446 24.2891C18.8383 24.2891 24.2891 18.8383 24.2891 12.1446C24.2891 5.45082 18.8383 0 12.1446 0ZM12.1446 2.02567C17.7472 2.02567 22.2634 6.54667 22.2634 12.1446C22.2634 17.2348 18.5299 21.4143 13.6484 22.1448V15.0953H16.5327L16.9834 12.1683H13.6484V10.5696C13.6484 9.3551 14.0469 8.27348 15.1854 8.27348H17.0119V5.72122C16.6893 5.67853 16.0109 5.58365 14.73 5.58365C12.0497 5.58365 10.4794 6.99735 10.4794 10.2232V12.1683H7.72318V15.0953H10.4794V22.1164C5.67853 21.3241 2.02567 17.1779 2.02567 12.1446C2.02567 6.54193 6.54193 2.02567 12.1446 2.02567Z" fill="black"/>
</svg>
