<svg width="25" height="25" viewBox="0 0 25 25" fill="none" xmlns="http://www.w3.org/2000/svg">
<path d="M12.8674 2.1874C16.1129 2.1874 16.4972 2.20163 17.7736 2.25857C18.9598 2.31076 19.6004 2.51005 20.0274 2.67612C20.5921 2.89438 21.0001 3.1601 21.4224 3.58239C21.8495 4.00943 22.1104 4.41275 22.3287 4.97739C22.4948 5.40443 22.6941 6.04974 22.7463 7.23122C22.8032 8.51234 22.8174 8.89667 22.8174 12.1374C22.8174 15.3829 22.8032 15.7673 22.7463 17.0437C22.6941 18.2299 22.4948 18.8704 22.3287 19.2975C22.1104 19.8621 21.8447 20.2702 21.4224 20.6925C20.9954 21.1195 20.5921 21.3805 20.0274 21.5987C19.6004 21.7648 18.9551 21.9641 17.7736 22.0163C16.4925 22.0732 16.1081 22.0875 12.8674 22.0875C9.62188 22.0875 9.23754 22.0732 7.96117 22.0163C6.77494 21.9641 6.13438 21.7648 5.70734 21.5987C5.1427 21.3805 4.73464 21.1148 4.31234 20.6925C3.8853 20.2654 3.62433 19.8621 3.40607 19.2975C3.24 18.8704 3.04071 18.2251 2.98852 17.0437C2.93158 15.7625 2.91734 15.3782 2.91734 12.1374C2.91734 8.89193 2.93158 8.50759 2.98852 7.23122C3.04071 6.04499 3.24 5.40443 3.40607 4.97739C3.62433 4.41275 3.89005 4.00469 4.31234 3.58239C4.73938 3.15535 5.1427 2.89438 5.70734 2.67612C6.13438 2.51005 6.77969 2.31076 7.96117 2.25857C9.23754 2.20163 9.62188 2.1874 12.8674 2.1874ZM12.8674 0C9.56968 0 9.15688 0.0142347 7.86152 0.0711734C6.57091 0.128112 5.68362 0.336887 4.91494 0.635816C4.11306 0.948978 3.43454 1.36178 2.76076 2.0403C2.08699 2.71882 1.66944 3.3926 1.35627 4.18974C1.05735 4.96316 0.848571 5.84571 0.791632 7.13632C0.734694 8.43642 0.720459 8.84922 0.720459 12.1469C0.720459 15.4446 0.734694 15.8574 0.791632 17.1528C0.848571 18.4434 1.05735 19.3307 1.35627 20.0994C1.66944 20.9013 2.08224 21.5798 2.76076 22.2535C3.43928 22.9273 4.11306 23.3449 4.9102 23.6533C5.68362 23.9522 6.56617 24.161 7.85678 24.2179C9.15213 24.2749 9.56494 24.2891 12.8626 24.2891C16.1603 24.2891 16.5731 24.2749 17.8685 24.2179C19.1591 24.161 20.0464 23.9522 20.8151 23.6533C21.6122 23.3449 22.2907 22.9273 22.9645 22.2535C23.6383 21.5798 24.0558 20.9013 24.3643 20.1041C24.6632 19.3307 24.872 18.4481 24.9289 17.1575C24.9858 15.8622 25.0001 15.4494 25.0001 12.1517C25.0001 8.85397 24.9858 8.44116 24.9289 7.14581C24.872 5.8552 24.6632 4.9679 24.3643 4.19923C24.0653 3.3926 23.6525 2.71408 22.974 2.0403C22.2955 1.36653 21.6217 0.948978 20.8246 0.64056C20.0512 0.341632 19.1686 0.132857 17.878 0.0759183C16.5779 0.0142347 16.1651 0 12.8674 0ZM12.8674 5.90739C9.42259 5.90739 6.62785 8.70213 6.62785 12.1469C6.62785 15.5917 9.42259 18.3865 12.8674 18.3865C16.3122 18.3865 19.1069 15.5917 19.1069 12.1469C19.1069 8.70213 16.3122 5.90739 12.8674 5.90739ZM12.8674 16.1943C10.6325 16.1943 8.81999 14.3818 8.81999 12.1469C8.81999 9.91208 10.6325 8.09953 12.8674 8.09953C15.1022 8.09953 16.9148 9.91208 16.9148 12.1469C16.9148 14.3818 15.1022 16.1943 12.8674 16.1943ZM20.8103 5.66066C20.8103 6.46729 20.1555 7.11734 19.3537 7.11734C18.547 7.11734 17.897 6.46254 17.897 5.66066C17.897 4.85402 18.5518 4.20397 19.3537 4.20397C20.1555 4.20397 20.8103 4.85877 20.8103 5.66066Z" fill="#0A0A08"/>
</svg>
