<svg width="174" height="56" viewBox="0 0 174 56" fill="none" xmlns="http://www.w3.org/2000/svg">
<path fill-rule="evenodd" clip-rule="evenodd" d="M87 36C135.048 36 174 37.5666 174 39.5C174 41.4334 135.049 43 87 43C38.951 43 0 41.4324 0 39.5C0 37.5676 38.951 36 87 36Z" fill="#EEB931"/>
<path fill-rule="evenodd" clip-rule="evenodd" d="M42.3323 38.2116L42.3634 38.1009C42.5117 37.5746 42.5247 37.0074 42.3271 36.4915L42.3151 36.4552C42.1948 36.1578 42.0098 35.8971 41.7691 35.6839C41.5073 35.4522 41.1958 35.2914 40.8601 35.1968C40.6474 35.1367 40.4277 35.104 40.2074 35.0935C39.9978 35.0837 39.8292 34.9262 39.8052 34.7176C39.5374 32.4143 39.9304 29.9122 40.2581 27.6277C40.3729 26.8278 40.4874 26.0275 40.5865 25.2255C40.5973 25.1395 40.6284 25.0683 40.6844 25.0021C41.3872 24.1488 42.1458 23.3295 42.9743 22.5967C43.5839 22.0575 44.2378 21.5602 44.9395 21.147C45.0426 21.0863 45.1534 21.0718 45.2685 21.1035C46.0246 21.313 46.973 21.5127 47.7618 21.4351C48.0988 21.4021 48.4711 21.3093 48.7342 21.0838C48.9798 20.873 49.0814 20.6062 49.0752 20.2845C49.0666 19.8531 48.8447 19.3934 48.6265 19.0448L48.6176 19.0313C48.5702 18.9598 48.5204 18.8899 48.4696 18.8208C47.7082 17.7898 46.7315 17.184 45.4359 17.1831C44.0298 17.1822 42.5767 17.9198 41.4288 18.6739C41.3011 18.7577 41.1512 18.7681 41.0133 18.7025C40.8755 18.6369 40.7887 18.5142 40.7727 18.3623C40.7444 18.0918 40.7105 17.8219 40.6724 17.5529L40.6721 17.5492C40.4877 16.4704 40.4176 15.3737 40.4649 14.2801C40.5053 13.3505 40.6293 12.4255 40.8361 11.5183C40.8819 11.3165 41.0607 11.1794 41.2672 11.1874C41.7916 11.208 42.3209 11.1649 42.8296 11.0321C43.5559 10.8426 44.1975 10.483 44.7195 9.94065C45.2371 9.40295 45.5864 8.73861 45.7993 8.0265C46.2375 6.56193 46.1064 4.9023 45.7273 3.4402L45.7227 3.42109C45.6187 2.92715 45.3869 2.56108 44.8899 2.41379C44.3646 2.25818 43.6931 2.44707 43.2011 2.63719L43.1826 2.64397C42.6164 2.83286 42.0553 3.04547 41.4999 3.26394C41.3282 3.33142 41.1411 3.28459 41.021 3.14439C40.1449 2.11798 39.0493 1.43269 37.6839 1.33716C36.0698 1.22439 34.4822 1.98117 33.1915 2.88463C31.8805 3.80226 30.8191 4.98489 30.1683 6.45655C29.5214 7.91989 29.3521 9.52127 29.558 11.1014C29.6639 11.9143 29.8119 12.7296 30.0298 13.5203C30.0485 13.5893 30.0507 13.6518 30.0359 13.7218C29.7199 15.2163 29.1533 16.6207 28.3357 17.9109C27.4583 19.2957 26.3307 20.486 25.0515 21.5044L25.0364 21.517C22.7308 23.3914 20.4215 25.8602 19.6509 28.8134C19.1428 30.7599 19.3656 32.6531 20.1738 34.4896C20.239 34.6381 20.2184 34.7993 20.1175 34.9262C20.0165 35.0532 19.8645 35.1099 19.7054 35.0797C18.7394 34.8963 17.8746 34.444 17.205 33.7189C16.7628 33.2398 16.432 32.6697 16.2107 32.0571C15.9799 31.4187 15.8722 30.738 15.8722 30.0598C15.8722 28.1916 16.6803 26.4167 18.0365 25.1429L18.0664 25.1173C18.0962 25.0942 18.1153 25.0621 18.1218 25.0249C18.1359 24.9432 18.0818 24.8659 18.0002 24.8517C15.6001 24.432 13.3961 25.215 12.0959 27.3152C11.5133 28.2566 11.1951 29.3545 11.1305 30.457C11.0631 31.6085 11.2721 32.7757 11.7432 33.8286C12.9394 36.502 15.4543 37.8563 18.2815 38.1472C18.3384 38.153 18.3864 38.1675 18.4369 38.1943C18.4584 38.2057 18.4821 38.2116 18.5064 38.2116H42.3323Z" fill="white"/>
<path fill-rule="evenodd" clip-rule="evenodd" d="M30.172 20.3279C30.0578 19.4559 29.6479 18.6551 29.0183 18.0548C28.1086 19.4285 26.9404 20.6817 25.5153 21.8138C22.5302 24.2413 20.7182 26.6792 20.0794 29.1265C19.547 31.1666 19.8329 33.2392 20.9373 35.344C21.935 36.3603 27.0669 35.5237 29.1519 32.099C29.9889 30.7241 30.0301 29.0069 29.2596 27.5935C25.9077 21.6634 30.8235 25.308 30.172 20.3279Z" fill="#DC9827"/>
<path fill-rule="evenodd" clip-rule="evenodd" d="M35.8478 11.4447C35.7047 13.0094 35.2785 14.6552 34.3772 15.7894C34.0719 16.1737 33.6687 16.5407 33.1862 16.6753C32.756 16.7952 32.3338 16.6969 31.9703 16.443C31.1256 15.8529 30.6396 14.6028 30.3655 13.6519C30.3602 13.6331 30.3565 13.6171 30.3538 13.5977C30.3519 13.586 30.3485 13.5739 30.3439 13.5631C30.3365 13.5453 30.331 13.5299 30.3261 13.5111C30.106 12.7115 29.9589 11.8844 29.8521 11.0626C29.6533 9.53673 29.818 7.98773 30.4427 6.57492C31.0702 5.15564 32.0965 4.01153 33.3607 3.12656C34.5966 2.26131 36.1202 1.52641 37.6669 1.63457C38.4535 1.68972 39.1739 1.96581 39.8143 2.42524C40.7569 3.1016 40.4806 3.29142 39.7571 3.08373C38.3544 2.68069 37.69 3.44579 38.071 4.84412C38.7498 7.3354 38.8225 10.1425 36.4984 11.6992C36.3689 11.7861 36.2144 11.7966 36.0743 11.7276C35.9562 11.6693 35.8762 11.5686 35.8478 11.4447Z" fill="#DC9827"/>
<path d="M38.0615 4.60345C38.3517 4.61208 38.5801 4.85459 38.5714 5.14516C38.5628 5.43573 38.3206 5.66437 38.0304 5.65574C37.7926 5.64835 37.647 5.70042 37.5944 5.81166C37.5411 5.92382 37.5676 6.08682 37.5384 6.29666C37.3673 7.52613 35.8719 4.70298 38.0615 4.60345Z" fill="#2D190F"/>
<path fill-rule="evenodd" clip-rule="evenodd" d="M39.8236 13.609C37.5257 15.3454 36.5458 18.3281 37.3657 21.0915C38.0371 23.0013 38.1581 25.0621 37.7149 27.0376C37.3623 28.346 37.5888 29.7433 38.3369 30.873C38.5603 31.2104 38.8237 31.5142 39.1192 31.7792C39.229 30.5248 39.4149 29.2297 39.6069 27.8918C40.0796 24.5969 40.5905 21.0351 40.055 17.2888C39.8473 16.0735 39.7706 14.84 39.8236 13.609Z" fill="#DC9827"/>
<path fill-rule="evenodd" clip-rule="evenodd" d="M20.5845 36.2829C18.2097 37.3241 15.4108 36.8194 13.5477 35.014C11.6782 33.2022 11.0864 30.4327 12.0518 28.0135C12.0558 28.0033 12.0598 27.9947 12.0644 27.9848C12.1503 27.8086 12.2451 27.6363 12.3482 27.4696C13.3215 25.8975 14.9126 25.047 16.7615 25.0421C16.9286 25.0418 17.072 25.1312 17.1452 25.2818C17.2181 25.4322 17.2 25.6008 17.0963 25.732C16.1266 26.9606 15.572 28.4908 15.572 30.0601C15.572 30.7735 15.6893 31.488 15.9318 32.1595C16.1666 32.8096 16.5199 33.4114 16.9889 33.9195C17.8992 34.9056 19.1058 35.4014 20.435 35.4682C20.6344 35.4781 20.7959 35.6198 20.8319 35.8167C20.8683 36.013 20.7676 36.2028 20.5845 36.2829Z" fill="#DC9827"/>
<path d="M34.681 28.0085C34.9752 31.0915 35.3722 33.8129 35.6593 36.0432L35.6833 36.2309L34.5462 36.3748L34.5222 36.1874C34.2336 33.9433 33.8849 31.2357 33.5901 28.1472L34.681 28.0085Z" fill="#2D190F"/>
<path fill-rule="evenodd" clip-rule="evenodd" d="M43.6098 4.51898C44.6804 8.30567 43.2026 10.1588 39.1768 10.0784C39.2435 10.0833 39.3239 10.099 39.4189 10.1274C40.7093 10.5144 41.7861 10.5575 42.649 10.3323C43.2759 10.1687 43.7929 9.86052 44.1985 9.4393C44.6105 9.01099 44.9137 8.46035 45.1054 7.82004C45.3362 7.04878 45.4054 6.15302 45.311 5.18578C45.2159 4.21392 45.0592 3.93136 44.136 4.46505C43.9741 4.55811 43.7867 4.56766 43.6098 4.51898Z" fill="#F2EDEB"/>
<path fill-rule="evenodd" clip-rule="evenodd" d="M43.9282 7.6515C44.1242 7.6589 44.2775 7.82406 44.2701 8.02034C44.2627 8.21662 44.0978 8.37008 43.9017 8.36268C43.7057 8.35529 43.5524 8.19012 43.5598 7.99384C43.5669 7.79725 43.7319 7.64411 43.9282 7.6515Z" fill="#2D190F"/>
<path fill-rule="evenodd" clip-rule="evenodd" d="M44.3379 6.45747C44.5339 6.46487 44.6871 6.63003 44.6798 6.82631C44.6724 7.02259 44.5074 7.17605 44.3114 7.16865C44.1151 7.16126 43.9621 6.99609 43.9695 6.79981C43.9769 6.60353 44.1418 6.45008 44.3379 6.45747Z" fill="#2D190F"/>
<path fill-rule="evenodd" clip-rule="evenodd" d="M43.188 6.66761C43.384 6.67501 43.5373 6.84017 43.5299 7.03645C43.5225 7.23305 43.3575 7.38619 43.1615 7.37879C42.9652 7.3714 42.8122 7.20624 42.8196 7.00965C42.827 6.81367 42.9919 6.66022 43.188 6.66761Z" fill="#2D190F"/>
<path fill-rule="evenodd" clip-rule="evenodd" d="M39.7811 13.6414C39.3263 13.9905 38.9241 14.3889 38.5779 14.8249C38.6047 15.945 38.7167 17.0632 38.9139 18.1703C39.5337 20.8844 39.6162 24.9611 39.1614 30.4006C39.2632 29.4666 39.4008 28.5086 39.5417 27.526C39.9812 24.4631 40.456 21.1522 39.9581 17.6696C39.7651 16.54 39.6937 15.3931 39.7433 14.249C39.7522 14.0462 39.7648 13.8435 39.7811 13.6414Z" fill="#BA802B"/>
<path fill-rule="evenodd" clip-rule="evenodd" d="M38.5778 14.8249C38.924 14.3889 39.3262 13.9908 39.7811 13.6414C39.8398 12.9154 39.9479 12.1928 40.1048 11.4789C39.5823 11.3387 39.0299 10.7538 38.9209 10.3853C38.6566 11.8527 38.5424 13.34 38.5778 14.8249Z" fill="#F2EDEB"/>
<path fill-rule="evenodd" clip-rule="evenodd" d="M43.7527 21.0558C43.1597 20.7131 42.4919 19.369 44.1796 19.9884C45.105 20.3286 46.8117 20.8019 47.6906 20.7156C47.9651 20.6885 48.1565 20.6262 48.2645 20.5335C48.3258 20.4811 48.3559 20.4013 48.3538 20.2981C48.3495 20.0775 48.2362 19.7829 48.011 19.423L47.8894 19.2513C47.3182 18.4782 46.6317 18.0379 45.8297 17.9307C47.4699 18.7639 47.6097 19.6981 45.9155 19.2067C44.5246 18.8246 42.9926 19.3906 41.3197 20.9051C41.3167 21.7192 41.2763 22.5194 41.2126 23.3061C41.6413 22.8498 42.0691 22.4328 42.4956 22.0557C42.9157 21.6844 43.3345 21.3513 43.7527 21.0558Z" fill="#F2EDEB"/>
<path fill-rule="evenodd" clip-rule="evenodd" d="M21.6205 35.6697C21.0272 34.26 20.7662 32.7517 20.8416 31.2138C20.8468 31.2153 20.8524 31.2165 20.8579 31.2175C21.0438 31.2424 21.2574 30.7916 21.3349 30.2108C21.4109 29.6426 21.3285 29.1604 21.1509 29.1166C21.7504 26.6746 23.19 24.2385 25.4876 22.0825C22.6662 24.3765 20.9533 26.6808 20.3498 28.9943C19.8338 30.9716 20.131 32.9809 21.2417 35.0223L21.2724 35.0787C21.3808 35.275 21.4968 35.4719 21.6205 35.6697Z" fill="#FBDF64"/>
<path fill-rule="evenodd" clip-rule="evenodd" d="M30.8376 16.3252C33.2186 20.2685 37.2882 16.9088 36.5025 11.6964C36.501 11.6973 36.4998 11.6983 36.4985 11.6992C36.4308 11.7445 36.3564 11.7691 36.281 11.7722C36.3105 13.1896 36.0141 14.8924 34.9435 16.2399C34.4791 16.8241 33.9437 17.2145 33.378 17.3723C32.7669 17.5424 32.1446 17.4441 31.5578 17.0343C31.3091 16.8608 31.0675 16.6257 30.8376 16.3252Z" fill="#F2EDEB"/>
<path fill-rule="evenodd" clip-rule="evenodd" d="M35.9937 9.73572C36.1401 10.2401 36.2639 10.9593 36.2808 11.7722C36.3565 11.7688 36.4307 11.7445 36.4984 11.6992C36.4996 11.6982 36.5011 11.6973 36.5024 11.6964C36.4076 11.0666 36.2417 10.4099 35.9937 9.73572Z" fill="#BA802B"/>
<path fill-rule="evenodd" clip-rule="evenodd" d="M30.8222 13.6956C30.5311 11.9515 30.5117 10.3572 30.7641 8.91328C30.7825 8.93054 30.8031 8.94225 30.8259 8.94749C30.9896 8.98569 31.2007 8.68002 31.2974 8.26465C31.394 7.84929 31.3398 7.48168 31.1761 7.44347C31.162 7.44008 31.1475 7.43947 31.1327 7.44101C31.6657 5.83531 32.5899 4.4453 33.9055 3.271C33.8055 3.33663 33.7048 3.40473 33.6039 3.47529C32.2735 4.40648 31.3703 5.52717 30.8312 6.74708C30.2409 8.08193 30.0824 9.54188 30.2735 11.0074C30.3945 11.9352 30.5517 12.7286 30.7361 13.3976C30.7542 13.4407 30.7671 13.4863 30.7745 13.5335C30.7899 13.5886 30.8062 13.6426 30.8222 13.6956Z" fill="#FBDF64"/>
<path fill-rule="evenodd" clip-rule="evenodd" d="M12.8855 28.4063C12.9024 28.3771 12.9196 28.3478 12.9372 28.3188C12.9436 28.3315 12.9522 28.3423 12.963 28.3503C13.0729 28.4332 13.3652 28.2304 13.6157 27.8976C13.8662 27.5648 13.9804 27.2277 13.8705 27.1448C13.8656 27.1408 13.8604 27.1378 13.8545 27.1353C14.6476 26.332 15.6502 25.7511 16.7627 25.4677C14.9012 25.4726 13.5216 26.3822 12.7094 27.6939C12.2038 28.5105 11.9112 29.4836 11.8521 30.4952C11.7985 31.4101 11.9355 32.353 12.278 33.2373C11.8222 31.6107 12.0413 29.8691 12.8855 28.4063Z" fill="#FBDF64"/>
<path fill-rule="evenodd" clip-rule="evenodd" d="M46.048 7.5135C46.2007 6.75857 46.2225 5.97436 46.1558 5.20833C46.1475 5.11096 46.137 5.01328 46.1271 4.91591C46.1124 4.76985 46.0967 4.62164 46.0908 4.47497C46.0828 4.2716 46.1004 4.02909 46.3435 3.96253C46.498 3.92032 46.6346 3.99458 46.7217 4.11784C46.762 4.17484 46.7946 4.2414 46.8236 4.30487C46.9897 4.66848 47.0925 5.06351 47.135 5.46069C47.1959 6.03106 47.1347 6.62822 46.9214 7.16315C46.8377 7.37268 46.7303 7.57235 46.598 7.75508C46.5121 7.87371 46.3595 7.915 46.2256 7.85615C46.0918 7.7976 46.0191 7.65709 46.048 7.5135Z" fill="#F2EDEB"/>
<path d="M43.7528 21.0557C43.1598 20.7131 42.492 19.369 44.1796 19.9884C45.105 20.3285 46.8117 20.8018 47.6906 20.7156C47.9651 20.6884 48.1565 20.6262 48.2646 20.5335C48.3258 20.4811 48.356 20.4013 48.3538 20.298C48.3495 20.0774 48.2362 19.7828 48.011 19.4229C47.9719 19.3653 47.9313 19.308 47.8894 19.2513C47.2269 18.3543 46.4089 17.9054 45.4355 17.9047C44.3876 17.9041 43.1333 18.3962 41.6728 19.3813C41.5426 19.4692 41.4164 19.5567 41.2939 19.6439C41.3515 20.8958 41.309 22.117 41.2127 23.3064C41.6414 22.85 42.0691 22.4331 42.4957 22.056C42.9157 21.6843 43.3346 21.3512 43.7528 21.0557ZM46.3492 7.57447C46.4661 7.413 46.5615 7.23613 46.636 7.04909C46.8262 6.5721 46.8865 6.02701 46.8296 5.49331C46.7899 5.12108 46.6932 4.75841 46.5443 4.43271C46.3036 3.9061 46.42 4.69801 46.4621 5.18117C46.5363 6.03194 46.4981 6.83925 46.3492 7.57447ZM47.2767 3.39706C47.658 3.96742 47.8953 4.66104 47.971 5.37191C48.0467 6.08124 47.9624 6.81676 47.7011 7.47186C47.357 8.33464 46.7129 9.05599 45.7319 9.40849C45.7017 9.41928 45.6715 9.42729 45.6414 9.43284C45.4635 9.72495 45.2579 9.99365 45.025 10.2355C44.475 10.8068 43.7777 11.2237 42.9363 11.4434C42.4255 11.5769 41.8629 11.6363 41.2499 11.6123C41.0487 12.4963 40.9283 13.3955 40.8893 14.298C40.8434 15.3558 40.9105 16.4214 41.0908 17.4767L41.093 17.4925C41.1327 17.7689 41.1665 18.0437 41.1951 18.3173C42.7803 17.2761 44.1938 16.756 45.4358 16.7569C46.7954 16.7579 47.9205 17.3615 48.8111 18.5672C48.8643 18.6396 48.9179 18.7155 48.9714 18.795L48.9804 18.8085C49.3198 19.3502 49.4915 19.8454 49.5001 20.2755C49.5094 20.7381 49.3447 21.1201 49.0108 21.4064C48.724 21.6523 48.3193 21.8076 47.803 21.8581C47.1438 21.9228 46.2566 21.8184 45.1548 21.513C44.5277 21.8825 43.8946 22.3496 43.2555 22.915C42.5141 23.5711 41.7654 24.3577 41.0099 25.2748L41.008 25.2769C40.9068 26.0966 40.7917 26.8999 40.6784 27.6875C40.3175 30.2028 39.9808 32.5505 40.227 34.6677C40.4926 34.6803 40.7428 34.7207 40.9751 34.7863C41.3915 34.9037 41.7543 35.1021 42.0504 35.3644C42.3526 35.6318 42.5815 35.9618 42.7255 36.3378L42.7237 36.3384C42.9348 36.8896 42.964 37.5343 42.7723 38.2159L42.6538 38.6368H19.5662H18.5064C18.4094 38.6368 18.318 38.6128 18.2377 38.5702C14.6128 38.1974 12.3814 36.2965 11.3548 34.0024C10.8439 32.8608 10.6359 31.6242 10.7057 30.4317C10.7759 29.2318 11.127 28.0714 11.7342 27.0903C12.935 25.1506 15.1107 23.9137 18.0731 24.4317C18.3857 24.4862 18.595 24.7848 18.5405 25.0979C18.515 25.2446 18.4362 25.3684 18.3273 25.4532C16.9504 26.7461 16.2974 28.4532 16.2974 30.0595C16.2974 30.7097 16.4033 31.3386 16.6104 31.912C16.8162 32.4824 17.1203 32.9997 17.5173 33.4296C18.0801 34.0394 18.8399 34.4819 19.7844 34.6609C18.9061 32.6642 18.7242 30.6792 19.2394 28.7052C19.9075 26.1462 21.7506 23.6395 24.7683 21.1861L24.7729 21.1815C26.0965 20.1301 27.1646 18.9638 27.9768 17.682C28.7643 16.4396 29.3121 15.0896 29.6201 13.6327C29.4235 12.9194 29.2591 12.0961 29.1366 11.1553C28.9191 9.48522 29.1019 7.81605 29.7798 6.28307C30.4002 4.87981 31.4327 3.59519 32.948 2.53428C34.6 1.37846 36.2159 0.807172 37.7134 0.911939C39.064 1.00654 40.2944 1.63729 41.3441 2.86737C41.89 2.6526 42.504 2.42088 43.0477 2.2397C46.8548 0.769888 46.3181 1.9633 47.2767 3.39706ZM39.4189 10.1274C40.7092 10.5144 41.786 10.5575 42.6489 10.3323C43.2758 10.1687 43.7928 9.86053 44.1984 9.43931C44.6105 9.011 44.9136 8.46036 45.1053 7.82005C45.3361 7.04879 45.4053 6.15303 45.3109 5.18579C45.2158 4.21393 45.0591 3.93137 44.1359 4.46506C43.5675 4.79353 42.6834 4.08698 43.0493 3.45222C42.499 3.64696 41.7488 3.70766 41.2478 3.90826C39.9583 4.24813 38.5889 4.3985 40.2091 3.32711C39.4346 2.5352 38.5667 2.12476 37.6374 2.05975C36.4073 1.97378 35.0385 2.47203 33.6044 3.47594C32.2741 4.40713 31.3708 5.52782 30.8317 6.74774C30.2414 8.08258 30.0829 9.54253 30.274 11.008C30.395 11.9358 30.5522 12.7293 30.7366 13.3982C30.7547 13.4414 30.7677 13.487 30.7751 13.5341C31.1671 14.8939 31.6743 15.7167 32.2147 16.0941C32.4996 16.2932 32.7926 16.3437 33.0733 16.2655C33.3992 16.1746 33.7321 15.9191 34.0454 15.5247C34.9434 14.3945 35.5777 12.2772 35.4706 9.62419C35.3668 7.05433 37.6755 12.8029 34.9443 16.2402C34.4799 16.8244 33.9445 17.2148 33.3788 17.3726C32.7677 17.5427 32.1454 17.4444 31.5586 17.0346C31.1086 16.7203 30.6812 16.2044 30.3054 15.4637C29.9657 16.4624 29.5136 17.4077 28.9483 18.2995C28.0682 19.6882 26.9148 20.9494 25.4884 22.0821C22.667 24.3762 20.9541 26.6805 20.3506 28.994C19.8346 30.9713 20.1318 32.9806 21.2425 35.022C21.2539 35.0402 21.264 35.059 21.2733 35.0784C21.4305 35.3638 21.6038 35.65 21.793 35.9369C22.4356 36.9088 20.8021 36.559 20.415 35.8931C18.827 35.8136 17.5699 35.1746 16.6778 34.2086C16.1721 33.6607 15.7884 33.0121 15.533 32.304C15.2785 31.5989 15.148 30.8369 15.148 30.0598C15.148 28.4963 15.6711 26.8521 16.7639 25.468C14.9024 25.4729 13.5228 26.3825 12.7107 27.6942C12.2051 28.5108 11.9124 29.4839 11.8533 30.4955C11.7936 31.5136 11.9703 32.5668 12.4036 33.5353C13.3809 35.7193 15.6856 37.4856 19.5674 37.4856H34.8249C34.8243 37.2674 34.7975 37.0665 34.7449 36.8844C34.6492 36.5538 34.4655 36.2761 34.1968 36.0651C33.9085 35.8389 33.5146 35.6802 33.0172 35.6038C32.1996 35.4781 31.1345 35.5761 29.8306 35.9545C29.5619 36.0327 29.2693 35.9039 29.1496 35.6417C29.0182 35.3533 29.1449 35.0128 29.4327 34.8812C31.814 33.7898 33.2874 31.2788 33.5438 29.0584C33.6253 28.3506 33.5807 27.6788 33.3995 27.1035C33.229 26.5628 32.9369 26.1092 32.5153 25.7983C31.6229 25.1401 30.1103 25.0643 27.8684 26.0241C25.2779 27.1282 29.7038 22.2972 33.1939 24.8714C33.8254 25.3373 34.2544 25.9912 34.4959 26.7575C34.7264 27.4884 34.7852 28.3235 34.6852 29.1896C34.4778 30.9885 33.573 32.9547 32.0953 34.4061C32.4898 34.3941 32.8545 34.415 33.1877 34.4665C33.8842 34.5734 34.4575 34.8125 34.9025 35.1616C35.3668 35.5258 35.6829 36.0019 35.846 36.5661C35.9294 36.8542 35.9719 37.162 35.9737 37.4868H41.7469C41.7709 37.2147 41.738 36.9658 41.6552 36.7491H41.6531C41.5749 36.5452 41.4524 36.3677 41.2924 36.2259C41.1262 36.0789 40.9154 35.9655 40.6668 35.8953C40.4267 35.8275 40.1541 35.8001 39.8534 35.8201C39.8435 35.8223 39.8337 35.8241 39.8235 35.8257C39.7857 35.8318 39.7481 35.834 39.7109 35.8327C39.4059 35.8673 39.0742 35.9489 38.7206 36.0848C37.7383 36.461 38.079 35.0473 39.0853 34.7774C38.8265 32.5203 39.1724 30.1094 39.5429 27.5272C39.9823 24.4644 40.4572 21.1534 39.9593 17.6709C39.7663 16.5412 39.6949 15.3944 39.7445 14.2502C39.7848 13.32 39.9054 12.3934 40.1057 11.4804C39.2379 11.2465 38.2885 9.78997 39.4189 10.1274Z" fill="#2D190F"/>
<path d="M51.7791 52.9265C54.6967 52.9265 56.4516 51.5946 57.0858 48.9306C57.5298 45.9284 57.7412 42.905 57.7412 39.8394C57.7412 39.0571 57.7201 38.2537 57.699 37.4714C57.6778 36.4989 57.6778 35.2938 57.6778 33.8349C57.6778 29.6487 57.7201 26.9848 57.7835 25.8643C57.8258 25.2723 57.847 24.6591 57.847 24.0671C57.847 23.5809 57.8258 23.0735 57.8047 22.5872C57.7412 21.4878 57.4875 20.4941 57.0435 19.6061C56.8744 19.3524 56.663 19.1621 56.3881 19.0564C56.1344 18.9295 55.923 18.8873 55.775 18.8873C55.5847 18.8873 55.4367 18.9295 55.2887 19.0141H55.2042C54.9082 19.0141 54.7602 19.1198 54.7602 19.3524C54.739 19.4158 54.739 19.5004 54.739 19.6272C54.6333 19.7541 54.5487 19.9021 54.4853 20.0501C53.5762 19.2044 52.4979 18.7815 51.2928 18.7815H51.2294C49.3477 18.9507 47.8043 19.7964 46.5569 21.2975C44.5484 23.75 43.5547 26.6042 43.5547 29.839C43.5547 30.3887 43.5758 30.9384 43.6393 31.5093C43.8295 33.391 44.5695 34.9766 45.8592 36.2663C46.5146 36.8795 47.1489 37.2812 47.8043 37.4926C48.4386 37.6829 48.946 37.7886 49.2843 37.7886C49.8128 37.7886 50.3414 37.6406 50.8277 37.3657C51.7791 36.6892 52.6459 35.4206 53.4493 33.5601C53.4493 39.4377 53.3225 43.7507 53.0688 46.5204C53.0053 48.1061 52.3711 49.3958 51.2082 50.4317C50.6797 50.8123 50.1088 51.0237 49.4957 51.0237C48.6711 51.0237 47.9523 50.6854 47.3603 50.0512C46.8529 49.438 46.5992 48.7403 46.5992 47.9792C46.5992 47.1758 46.7472 46.3935 47.0643 45.6324V45.5901C47.0643 45.5478 47.0432 45.4844 47.0009 45.4421C46.9375 45.3998 46.8952 45.3787 46.8318 45.3576C46.7683 45.3364 46.7049 45.3364 46.6838 45.3364C46.6415 45.3364 46.5992 45.3364 46.578 45.3576C45.4786 45.8861 44.9289 46.6684 44.9289 47.7044C44.9289 48.0426 44.9924 48.4232 45.1192 48.8249C45.6901 50.2837 46.7049 51.362 48.1426 52.0386C49.3477 52.6306 50.5528 52.9265 51.7791 52.9265ZM48.8826 35.3149C48.6077 35.1035 48.354 34.5538 48.1214 33.6658L48.1003 33.5601C47.8677 32.651 47.762 31.7207 47.762 30.8116C47.762 28.951 48.2483 26.7945 49.2208 24.2997C49.6014 23.1369 49.9185 22.3123 50.13 21.7838C50.7008 20.4941 51.3774 19.8387 52.1596 19.8387C52.3499 19.8387 52.5191 19.8598 52.7093 19.9444C53.3013 20.1769 53.7665 20.6209 54.0836 21.2341C53.9356 22.0163 53.8299 22.7563 53.7665 23.4752L53.7242 23.8769C53.6185 24.9974 53.555 26.0968 53.5339 27.2174C53.3013 28.1265 53.0265 29.0356 52.7093 29.9236C52.2231 31.5304 51.4408 32.9681 50.3414 34.2155C50.13 34.4269 49.8128 34.6806 49.39 34.9555C49.1997 35.0612 49.0306 35.1669 48.8826 35.3149ZM63.5343 38.0423C64.0628 38.0423 64.3588 37.8731 64.38 37.5137C64.5702 36.9852 64.676 36.4566 64.676 35.9069C64.6125 35.0189 64.5914 33.9618 64.5914 32.7144C64.5914 32.503 64.7817 31.7418 65.1411 30.431C65.5005 29.1413 65.7754 28.1053 65.9234 27.3231C66.2194 25.526 66.7691 23.8557 67.5936 22.3123C67.8685 21.8261 68.2279 21.3821 68.6719 21.0015C68.693 20.9804 68.7564 20.9381 68.841 20.8958C68.7776 21.1918 68.693 21.9952 68.5662 23.3272C68.5239 23.9192 68.4816 24.4054 68.397 24.7648C68.2913 25.3146 68.249 25.8643 68.249 26.4351C68.249 26.9848 68.4182 27.4499 68.7353 27.8516C69.3061 28.4859 69.9616 28.8242 70.7015 28.8242C71.3992 28.8242 71.8221 28.6762 71.9912 28.3802C72.1392 28.0842 72.3084 26.4351 72.4775 23.4117C72.4986 23.1792 72.5198 22.9677 72.5198 22.7563C72.5198 22.3335 72.4564 21.9318 72.3718 21.5935C72.2449 21.0861 71.9278 20.5998 71.4204 20.1135C70.8707 19.6061 70.321 19.3524 69.7713 19.3524C69.5599 19.3524 69.3273 19.3947 69.1159 19.4792C68.3547 19.7752 67.6782 20.3038 67.1073 21.0861C66.0291 22.714 65.2679 24.49 64.8662 26.4351L64.5914 27.3654C64.6125 25.9911 64.6548 24.9974 64.6971 24.3843C64.7605 23.7923 64.7817 23.2003 64.7817 22.6083C64.7817 22.27 64.7817 21.9529 64.7605 21.6146C64.6971 20.7055 64.4011 19.8809 63.8514 19.141C63.8514 19.1621 63.8514 19.1621 63.8303 19.1621C63.64 18.8873 63.2806 18.7604 62.7309 18.7604C61.8852 18.8238 61.3355 19.2044 61.1029 19.9021C60.9126 20.4729 60.8069 21.0861 60.7858 21.7203C60.6378 24.0671 60.5532 26.4351 60.5532 28.7819C60.5532 30.1562 60.5743 31.5304 60.6166 32.9047L60.5955 34.0041C60.5955 34.9978 60.7858 35.9492 61.1452 36.8583C61.4623 37.5137 62.0966 37.8943 63.0268 38.0423H63.5343ZM77.7843 38.5497C78.186 38.5497 78.482 38.444 78.6722 38.2537C78.6722 38.2749 78.6722 38.2749 78.6934 38.2749C78.9471 37.9577 79.0739 37.6829 79.0951 37.4714C79.0951 37.2812 79.1162 37.112 79.1162 37.0063L79.0105 35.9069C78.8202 33.8561 78.7145 31.8264 78.7145 29.7756C78.7145 27.9362 78.7991 26.2025 78.9682 24.5957C79.0951 23.2849 79.1585 22.3758 79.1585 21.8683C79.1585 21.5089 79.0951 21.0861 78.9682 20.6421C78.8202 20.1135 78.5877 19.6907 78.2705 19.3735C77.9745 19.0564 77.6151 18.8873 77.2134 18.8873L76.854 18.9295C76.0929 19.1198 75.6066 19.5004 75.374 20.0712C75.1415 20.6421 75.0146 21.2975 74.9723 22.0375C74.7609 23.306 74.634 25.1243 74.5706 27.4922L74.5495 28.9722C74.5495 29.8179 74.5917 31.2556 74.6975 33.3064C74.7186 34.0675 74.782 34.8075 74.8877 35.5475C74.9935 36.2875 75.2683 36.964 75.7123 37.5349C75.9871 37.8731 76.3466 38.1269 76.7694 38.296C77.1711 38.4651 77.5305 38.5497 77.7843 38.5497ZM78.1014 17.7879C78.7991 17.7879 79.1585 17.5553 79.1585 17.069L79.1374 16.3502C79.1374 15.9485 79.1585 15.5679 79.2219 15.1662L79.2431 14.9336C79.2431 14.4685 79.0317 14.0668 78.6511 13.7708C78.1225 13.3479 77.5517 13.1365 76.9386 13.1365C75.9026 13.1365 75.374 13.9399 75.374 15.5468C75.374 15.737 75.3952 15.9273 75.4163 16.1176C75.5009 16.5616 75.7546 16.8999 76.1563 17.1747C76.7483 17.5764 77.4037 17.7879 78.1014 17.7879ZM85.2475 38.1903C85.7761 38.148 86.0932 37.8731 86.1989 37.3446L86.2201 36.7526C86.2201 36.4777 86.2201 36.2029 86.1778 35.928C87.0869 36.5412 87.8903 36.8795 88.6303 36.9852C89.3703 37.0697 89.8989 37.112 90.1948 37.112C90.956 37.112 91.6325 36.9852 92.2245 36.7103C93.5988 35.928 94.4868 34.6806 94.8673 32.947C95.2902 31.0864 95.4805 29.1836 95.4805 27.2385C95.4805 25.3991 95.2056 23.602 94.6136 21.8472C94.1485 20.0712 93.2605 19.1198 91.9497 18.993H91.8017C91.1885 18.993 90.5543 19.1621 89.92 19.5215C89.3069 19.8809 88.7572 20.3038 88.292 20.7478C87.0658 21.9106 86.1566 23.2637 85.5435 24.8071C85.5435 22.5026 85.7127 19.6272 86.0509 16.181L86.3258 13.3691L86.3892 12.6925C86.4949 11.9314 86.5584 11.2548 86.5584 10.684C86.5584 10.0497 86.4526 9.47888 86.2624 8.99261C86.0087 8.40062 85.5012 8.12577 84.7401 8.12577C84.275 8.12577 83.9156 8.25262 83.6407 8.50633C83.3658 8.76004 83.1544 9.16174 83.0064 9.71145C82.6259 10.98 82.351 12.2697 82.1607 13.5805C81.6322 17.069 81.3573 20.7901 81.3573 24.7648C81.3573 25.2934 81.3996 27.1117 81.5053 30.2619V30.579C81.5053 32.7144 81.7802 34.7652 82.351 36.7315V36.7103C82.5624 37.1966 82.943 37.556 83.4927 37.8097C84.0424 38.0634 84.5498 38.1903 85.0361 38.1903H85.2475ZM88.0172 34.9555C87.6366 34.9555 87.1715 34.6806 86.6218 34.1309C86.4104 33.9195 86.1989 33.7292 85.9664 33.5812C86.0087 31.2767 86.2835 29.0145 86.8121 26.7945C87.1503 25.1031 87.848 23.5809 88.9052 22.2489C89.4337 21.6358 90.0257 21.1284 90.6811 20.6844C90.7234 20.6632 90.808 20.6209 90.9348 20.5364C91.4845 20.1981 91.8651 20.0289 92.0554 20.0289C92.1611 20.0289 92.2245 20.0924 92.2457 20.2192C92.2457 20.3461 92.2668 20.4518 92.2668 20.5152C92.2668 20.9169 92.2457 21.1706 92.2034 21.2341C92.14 22.1855 92.0342 23.158 91.8651 24.1094C91.7171 24.8917 91.6114 25.6951 91.5268 26.5197C91.4211 28.4648 91.1885 30.0927 90.8714 31.4036C90.5331 32.8413 89.772 33.9829 88.5669 34.8075C88.3766 34.9132 88.1863 34.9555 88.0172 34.9555ZM102.648 37.4503C103.62 37.4503 104.529 37.0909 105.417 36.3932C106.644 35.3572 107.341 34.0252 107.51 32.3973C107.743 30.8327 107.849 29.2682 107.849 27.7248C107.849 25.2511 107.574 22.7986 107.003 20.3461C106.961 20.1981 106.855 20.0712 106.686 19.9655C106.517 19.8598 106.348 19.7752 106.179 19.733C106.009 19.6907 105.861 19.6695 105.756 19.6695C105.544 19.6695 105.439 19.7541 105.439 19.9021V19.9655C106.009 22.3546 106.284 24.7648 106.284 27.1962C106.284 28.1265 106.242 29.0568 106.157 29.987C106.136 30.0716 106.136 30.1562 106.136 30.2619C106.094 31.0441 105.967 31.8476 105.735 32.6721C105.502 33.4967 105.016 34.0887 104.276 34.4692C103.937 34.5961 103.599 34.6595 103.261 34.6806C102.901 34.7018 102.584 34.7652 102.288 34.8709L102.056 34.4269C101.506 32.8413 101.252 31.1921 101.252 29.5007C101.252 28.8665 101.273 28.2111 101.358 27.5556C101.4 26.8579 101.421 25.8008 101.421 24.3843L101.4 23.5386C101.4 22.7563 101.464 21.974 101.569 21.2129C101.612 21.0015 101.633 20.7901 101.633 20.5998C101.633 19.6061 101.125 19.0987 100.089 19.0775C98.6941 19.0775 97.8484 20.0501 97.5736 21.9952C97.2987 24.0671 97.1718 26.3082 97.1718 28.7396C97.1718 30.1562 97.341 31.5938 97.7004 33.0738C98.1233 34.8498 99.1381 36.1606 100.745 37.0274C101.4 37.3023 102.035 37.4503 102.648 37.4503ZM117.342 43.3279C118.949 43.3279 120.302 42.7782 121.422 41.6788C122.437 40.6851 122.944 39.48 122.944 38.0634C122.944 37.3657 122.839 36.6257 122.585 35.8435C121.782 34.0887 120.661 32.5664 119.245 31.2344L117.913 29.7967C116.285 27.9574 115.079 25.8643 114.297 23.5597C113.853 22.0163 113.621 20.5364 113.621 19.0775C113.621 15.885 114.699 12.904 116.855 10.1132C117.257 9.54231 117.68 9.11946 118.124 8.80232C118.589 8.48519 119.012 8.33719 119.414 8.33719C119.689 8.33719 119.985 8.37948 120.281 8.50633C120.957 8.84461 121.359 9.37317 121.507 10.092C121.655 10.8109 121.718 11.4663 121.718 12.0794V12.6291C121.739 12.9251 121.76 13.1999 121.76 13.4748C121.76 14.7645 121.507 16.0119 121.042 17.217C120.344 18.4644 119.329 19.3101 117.997 19.7752C117.913 19.8175 117.87 19.8598 117.87 19.9021C117.87 19.9655 117.913 20.0289 118.018 20.0924C118.209 20.2404 118.399 20.3038 118.589 20.3038C120.09 20.3038 121.211 19.7118 121.951 18.5278C122.691 17.3439 123.071 16.2656 123.135 15.2719C123.198 14.2994 123.24 13.6439 123.24 13.3057C123.24 12.1217 123.092 11.0857 122.818 10.1766C121.993 8.23148 120.577 7.23779 118.589 7.23779C116.2 7.32235 114.276 8.06234 112.796 9.47888C111.105 11.3183 110.132 13.0308 109.9 14.5953C109.667 16.1599 109.561 17.3439 109.561 18.105C109.561 19.6907 109.815 21.2763 110.301 22.8409C111.337 25.9911 113.113 28.803 115.608 31.2979C116.982 32.5241 118.039 33.9407 118.737 35.5475C118.906 36.0338 118.97 36.52 118.97 36.9852C118.97 37.7463 118.758 38.4651 118.314 39.1205C117.617 40.1565 116.559 40.7697 115.185 40.9177H115.058C114.445 40.9177 113.938 40.7274 113.515 40.3468C112.754 39.6703 112.394 38.7188 112.394 37.4926C112.394 36.6892 112.669 35.5898 113.24 34.2155C113.282 34.1309 113.304 34.0252 113.304 33.9407C113.304 33.7715 113.219 33.6235 113.029 33.4755C112.733 33.2641 112.416 33.1372 112.035 33.1372C111.802 33.1372 111.633 33.2218 111.506 33.3698C110.893 34.3001 110.555 35.1246 110.47 35.8223C110.365 36.52 110.322 36.9852 110.322 37.26C110.322 38.0846 110.513 38.888 110.893 39.6703C111.95 41.4674 113.494 42.609 115.545 43.1165C116.179 43.2645 116.771 43.3279 117.342 43.3279ZM129.583 37.4503C130.556 37.4503 131.465 37.0909 132.353 36.3932C133.579 35.3572 134.277 34.0252 134.446 32.3973C134.678 30.8327 134.784 29.2682 134.784 27.7248C134.784 25.2511 134.509 22.7986 133.939 20.3461C133.896 20.1981 133.791 20.0712 133.621 19.9655C133.452 19.8598 133.283 19.7752 133.114 19.733C132.945 19.6907 132.797 19.6695 132.691 19.6695C132.48 19.6695 132.374 19.7541 132.374 19.9021V19.9655C132.945 22.3546 133.22 24.7648 133.22 27.1962C133.22 28.1265 133.177 29.0568 133.093 29.987C133.072 30.0716 133.072 30.1562 133.072 30.2619C133.029 31.0441 132.903 31.8476 132.67 32.6721C132.437 33.4967 131.951 34.0887 131.211 34.4692C130.873 34.5961 130.535 34.6595 130.196 34.6806C129.837 34.7018 129.52 34.7652 129.224 34.8709L128.991 34.4269C128.441 32.8413 128.188 31.1921 128.188 29.5007C128.188 28.8665 128.209 28.2111 128.293 27.5556C128.336 26.8579 128.357 25.8008 128.357 24.3843L128.336 23.5386C128.336 22.7563 128.399 21.974 128.505 21.2129C128.547 21.0015 128.568 20.7901 128.568 20.5998C128.568 19.6061 128.061 19.0987 127.025 19.0775C125.63 19.0775 124.784 20.0501 124.509 21.9952C124.234 24.0671 124.107 26.3082 124.107 28.7396C124.107 30.1562 124.276 31.5938 124.636 33.0738C125.059 34.8498 126.074 36.1606 127.68 37.0274C128.336 37.3023 128.97 37.4503 129.583 37.4503ZM140.028 37.4503C140.662 37.4503 140.979 36.7737 140.979 35.4206C140.979 35.0612 140.937 34.6595 140.852 34.2789L140.768 33.6024L141.254 31.6784C141.867 28.951 142.818 26.2871 144.066 23.6866C144.721 22.3123 145.567 21.1495 146.561 20.1981C146.624 20.1347 146.666 20.0501 146.666 19.9655L146.709 20.1769C146.709 20.6209 146.561 21.2763 146.286 22.122C145.884 23.306 145.609 24.8917 145.461 26.9002C145.25 28.5071 145.144 30.1139 145.144 31.7207C145.144 32.9258 145.207 33.8984 145.355 34.6384C145.461 35.2938 145.778 35.8435 146.265 36.2875C146.857 36.7949 147.491 37.0274 148.188 37.0274C148.611 37.0274 148.95 36.8795 149.224 36.5412C149.33 36.372 149.372 36.2029 149.372 35.9915C149.372 35.6955 149.309 35.3361 149.203 34.8709C149.076 34.3001 149.013 33.4755 149.013 32.4184C149.013 31.1499 149.119 29.691 149.309 28.0208C149.52 26.3717 149.626 25.2088 149.626 24.5746C149.626 20.8746 148.611 19.0353 146.582 19.0353C146.053 19.0987 145.63 19.3101 145.271 19.6695C144.911 20.0289 144.51 20.5364 144.087 21.1706C142.713 23.1369 141.507 25.674 140.45 28.7608L140.324 25.1454C140.197 23.1792 140.006 21.9106 139.71 21.3398C139.605 21.1072 139.541 20.8958 139.499 20.6844C139.436 20.4941 139.288 20.3038 139.034 20.1347C138.717 19.9232 138.4 19.8175 138.146 19.8175C137.934 19.8175 137.808 19.9021 137.744 20.0712C137.681 20.2404 137.575 20.3884 137.469 20.5364C137.237 20.7689 137.089 21.1495 137.025 21.7203C136.793 23.0523 136.666 24.4689 136.666 25.9488C136.666 27.7459 136.772 29.8813 137.004 32.3973C137.025 33.9195 137.279 35.2515 137.808 36.372C137.956 36.6257 138.252 36.8583 138.674 37.0697C139.182 37.3234 139.647 37.4503 140.028 37.4503ZM154.912 38.5497C155.313 38.5497 155.609 38.444 155.8 38.2537C155.8 38.2749 155.8 38.2749 155.821 38.2749C156.075 37.9577 156.201 37.6829 156.223 37.4714C156.223 37.2812 156.244 37.112 156.244 37.0063L156.138 35.9069C155.948 33.8561 155.842 31.8264 155.842 29.7756C155.842 27.9362 155.927 26.2025 156.096 24.5957C156.223 23.2849 156.286 22.3758 156.286 21.8683C156.286 21.5089 156.223 21.0861 156.096 20.6421C155.948 20.1135 155.715 19.6907 155.398 19.3735C155.102 19.0564 154.743 18.8873 154.341 18.8873L153.982 18.9295C153.22 19.1198 152.734 19.5004 152.502 20.0712C152.269 20.6421 152.142 21.2975 152.1 22.0375C151.888 23.306 151.762 25.1243 151.698 27.4922L151.677 28.9722C151.677 29.8179 151.719 31.2556 151.825 33.3064C151.846 34.0675 151.91 34.8075 152.015 35.5475C152.121 36.2875 152.396 36.964 152.84 37.5349C153.115 37.8731 153.474 38.1269 153.897 38.296C154.299 38.4651 154.658 38.5497 154.912 38.5497ZM155.229 17.7879C155.927 17.7879 156.286 17.5553 156.286 17.069L156.265 16.3502C156.265 15.9485 156.286 15.5679 156.349 15.1662L156.371 14.9336C156.371 14.4685 156.159 14.0668 155.779 13.7708C155.25 13.3479 154.679 13.1365 154.066 13.1365C153.03 13.1365 152.502 13.9399 152.502 15.5468C152.502 15.737 152.523 15.9273 152.544 16.1176C152.628 16.5616 152.882 16.8999 153.284 17.1747C153.876 17.5764 154.531 17.7879 155.229 17.7879Z" fill="#1D0D00"/>
</svg>
